<?xml version="1.0" encoding="UTF-8" standalone="no"?>
<svg
   xmlns:dc="http://purl.org/dc/elements/1.1/"
   xmlns:cc="http://creativecommons.org/ns#"
   xmlns:rdf="http://www.w3.org/1999/02/22-rdf-syntax-ns#"
   xmlns:svg="http://www.w3.org/2000/svg"
   xmlns="http://www.w3.org/2000/svg"
   xmlns:xlink="http://www.w3.org/1999/xlink"
   xmlns:sodipodi="http://sodipodi.sourceforge.net/DTD/sodipodi-0.dtd"
   xmlns:inkscape="http://www.inkscape.org/namespaces/inkscape"
   sodipodi:docname="doublewell_potential.svg"
   inkscape:version="1.0 (4035a4f, 2020-05-01)"
   width="106mm"
   height="72mm"
   viewBox="0 0 106 72"
   version="1.1"
   id="svg8">
  <defs
     id="defs2">
    <marker
       inkscape:isstock="true"
       style="overflow:visible"
       id="Arrow1Mstart"
       refX="0"
       refY="0"
       orient="auto"
       inkscape:stockid="Arrow1Mstart">
      <path
         transform="matrix(0.4,0,0,0.4,4,0)"
         style="fill:#e14b4b;fill-opacity:1;fill-rule:evenodd;stroke:#e14b4b;stroke-width:1pt;stroke-opacity:1"
         d="M 0,0 5,-5 -12.5,0 5,5 Z"
         id="path1110" />
    </marker>
    <marker
       inkscape:isstock="true"
       style="overflow:visible"
       id="marker1619"
       refX="0"
       refY="0"
       orient="auto"
       inkscape:stockid="Arrow1Mend">
      <path
         transform="matrix(-0.4,0,0,-0.4,-4,0)"
         style="fill:#e14b4b;fill-opacity:1;fill-rule:evenodd;stroke:#e14b4b;stroke-width:1pt;stroke-opacity:1"
         d="M 0,0 5,-5 -12.5,0 5,5 Z"
         id="path1617" />
    </marker>
    <marker
       inkscape:isstock="true"
       style="overflow:visible"
       id="Arrow1Mend"
       refX="0"
       refY="0"
       orient="auto"
       inkscape:stockid="Arrow1Mend">
      <path
         transform="matrix(-0.4,0,0,-0.4,-4,0)"
         style="fill:#000000;fill-opacity:1;fill-rule:evenodd;stroke:#000000;stroke-width:1pt;stroke-opacity:1"
         d="M 0,0 5,-5 -12.5,0 5,5 Z"
         id="path1113" />
    </marker>
    <marker
       inkscape:isstock="true"
       style="overflow:visible"
       id="marker1412"
       refX="0"
       refY="0"
       orient="auto"
       inkscape:stockid="Arrow1Lend">
      <path
         transform="matrix(-0.8,0,0,-0.8,-10,0)"
         style="fill:#000000;fill-opacity:1;fill-rule:evenodd;stroke:#000000;stroke-width:1pt;stroke-opacity:1"
         d="M 0,0 5,-5 -12.5,0 5,5 Z"
         id="path1410" />
    </marker>
    <marker
       inkscape:isstock="true"
       style="overflow:visible"
       id="marker1388"
       refX="0"
       refY="0"
       orient="auto"
       inkscape:stockid="Arrow1Lend">
      <path
         transform="matrix(-0.8,0,0,-0.8,-10,0)"
         style="fill:#ffffff;fill-opacity:1;fill-rule:evenodd;stroke:#4c0000;stroke-width:1pt;stroke-opacity:1"
         d="M 0,0 5,-5 -12.5,0 5,5 Z"
         id="path1386" />
    </marker>
    <marker
       inkscape:isstock="true"
       style="overflow:visible"
       id="Arrow1Lend"
       refX="0"
       refY="0"
       orient="auto"
       inkscape:stockid="Arrow1Lend">
      <path
         transform="matrix(-0.8,0,0,-0.8,-10,0)"
         style="fill:#ffffff;fill-opacity:1;fill-rule:evenodd;stroke:#4c0000;stroke-width:1pt;stroke-opacity:1"
         d="M 0,0 5,-5 -12.5,0 5,5 Z"
         id="path1107" />
    </marker>
    <clipPath
       id="clipPath1316">
      <rect
         y="26.550135"
         x="54.271603"
         height="68.717995"
         width="101.51523"
         style="fill:#ffffff;fill-opacity:1;stroke:none;stroke-width:0.799999"
         id="rect843" />
    </clipPath>
    <g
       id="g3987">
      <symbol
         id="symbol8363"
         overflow="visible">
        <path
           id="path7935"
           d=""
           style="stroke:none" />
      </symbol>
      <symbol
         id="symbol4470"
         overflow="visible">
        <path
           id="path9246"
           d="M 3.71875,-3.765625 C 3.53125,-4.140625 3.25,-4.40625 2.796875,-4.40625 c -1.15625,0 -2.390625,1.46875 -2.390625,2.921875 0,0.9375 0.546875,1.59375 1.3125,1.59375 0.203125,0 0.703125,-0.046875 1.296875,-0.75 0.078125,0.421875 0.4375,0.75 0.90625,0.75 0.359375,0 0.578125,-0.234375 0.75,-0.546875 0.15625,-0.359375 0.296875,-0.96875 0.296875,-0.984375 0,-0.109375 -0.09375,-0.109375 -0.125,-0.109375 -0.09375,0 -0.109375,0.046875 -0.140625,0.1875 -0.171875,0.640625 -0.34375,1.234375 -0.75,1.234375 -0.28125,0 -0.296875,-0.265625 -0.296875,-0.453125 0,-0.21875 0.015625,-0.3125 0.125,-0.75 C 3.890625,-1.71875 3.90625,-1.828125 4,-2.203125 L 4.359375,-3.59375 c 0.0625,-0.28125 0.0625,-0.296875 0.0625,-0.34375 0,-0.171875 -0.109375,-0.265625 -0.28125,-0.265625 -0.25,0 -0.390625,0.21875 -0.421875,0.4375 z M 3.078125,-1.1875 C 3.015625,-1 3.015625,-0.984375 2.875,-0.8125 2.4375,-0.265625 2.03125,-0.109375 1.75,-0.109375 c -0.5,0 -0.640625,-0.546875 -0.640625,-0.9375 0,-0.5 0.3125,-1.71875 0.546875,-2.1875 0.3125,-0.578125 0.75,-0.953125 1.15625,-0.953125 0.640625,0 0.78125,0.8125 0.78125,0.875 0,0.0625 -0.015625,0.125 -0.03125,0.171875 z m 0,0"
           style="stroke:none" />
      </symbol>
    </g>
    <g
       id="g6047">
      <symbol
         id="symbol2045"
         overflow="visible">
        <path
           id="path7578"
           d=""
           style="stroke:none" />
      </symbol>
      <symbol
         id="symbol615"
         overflow="visible">
        <path
           id="path3159"
           d="m 6.5625,-2.296875 c 0.171875,0 0.359375,0 0.359375,-0.203125 0,-0.1875 -0.1875,-0.1875 -0.359375,-0.1875 H 1.171875 c -0.171875,0 -0.34375,0 -0.34375,0.1875 0,0.203125 0.171875,0.203125 0.34375,0.203125 z m 0,0"
           style="stroke:none" />
      </symbol>
      <symbol
         id="symbol8712"
         overflow="visible">
        <path
           id="path3212"
           d=""
           style="stroke:none" />
      </symbol>
      <symbol
         id="symbol3522"
         overflow="visible">
        <path
           id="path5044"
           d="M 3.71875,-3.765625 C 3.53125,-4.140625 3.25,-4.40625 2.796875,-4.40625 c -1.15625,0 -2.390625,1.46875 -2.390625,2.921875 0,0.9375 0.546875,1.59375 1.3125,1.59375 0.203125,0 0.703125,-0.046875 1.296875,-0.75 0.078125,0.421875 0.4375,0.75 0.90625,0.75 0.359375,0 0.578125,-0.234375 0.75,-0.546875 0.15625,-0.359375 0.296875,-0.96875 0.296875,-0.984375 0,-0.109375 -0.09375,-0.109375 -0.125,-0.109375 -0.09375,0 -0.109375,0.046875 -0.140625,0.1875 -0.171875,0.640625 -0.34375,1.234375 -0.75,1.234375 -0.28125,0 -0.296875,-0.265625 -0.296875,-0.453125 0,-0.21875 0.015625,-0.3125 0.125,-0.75 C 3.890625,-1.71875 3.90625,-1.828125 4,-2.203125 L 4.359375,-3.59375 c 0.0625,-0.28125 0.0625,-0.296875 0.0625,-0.34375 0,-0.171875 -0.109375,-0.265625 -0.28125,-0.265625 -0.25,0 -0.390625,0.21875 -0.421875,0.4375 z M 3.078125,-1.1875 C 3.015625,-1 3.015625,-0.984375 2.875,-0.8125 2.4375,-0.265625 2.03125,-0.109375 1.75,-0.109375 c -0.5,0 -0.640625,-0.546875 -0.640625,-0.9375 0,-0.5 0.3125,-1.71875 0.546875,-2.1875 0.3125,-0.578125 0.75,-0.953125 1.15625,-0.953125 0.640625,0 0.78125,0.8125 0.78125,0.875 0,0.0625 -0.015625,0.125 -0.03125,0.171875 z m 0,0"
           style="stroke:none" />
      </symbol>
    </g>
    <g
       id="g6213">
      <symbol
         id="symbol5131"
         overflow="visible">
        <path
           id="path4070"
           d=""
           style="stroke:none" />
      </symbol>
      <symbol
         id="symbol5331"
         overflow="visible">
        <path
           id="path4049"
           d="M 3.328125,-3.015625 C 3.390625,-3.265625 3.625,-4.1875 4.3125,-4.1875 c 0.046875,0 0.296875,0 0.5,0.125 C 4.53125,-4 4.34375,-3.765625 4.34375,-3.515625 c 0,0.15625 0.109375,0.34375 0.375,0.34375 0.21875,0 0.53125,-0.171875 0.53125,-0.578125 0,-0.515625 -0.578125,-0.65625 -0.921875,-0.65625 -0.578125,0 -0.921875,0.53125 -1.046875,0.75 -0.25,-0.65625 -0.78125,-0.75 -1.078125,-0.75 -1.03125,0 -1.609375,1.28125 -1.609375,1.53125 0,0.109375 0.109375,0.109375 0.125,0.109375 0.078125,0 0.109375,-0.03125 0.125,-0.109375 0.34375,-1.0625 1,-1.3125 1.34375,-1.3125 0.1875,0 0.53125,0.09375 0.53125,0.671875 0,0.3125 -0.171875,0.96875 -0.53125,2.375 -0.15625,0.609375 -0.515625,1.03125 -0.953125,1.03125 -0.0625,0 -0.28125,0 -0.5,-0.125 0.25,-0.0625 0.46875,-0.265625 0.46875,-0.546875 0,-0.265625 -0.21875,-0.34375 -0.359375,-0.34375 -0.3125,0 -0.546875,0.25 -0.546875,0.578125 0,0.453125 0.484375,0.65625 0.921875,0.65625 0.671875,0 1.03125,-0.703125 1.046875,-0.75 0.125,0.359375 0.484375,0.75 1.078125,0.75 1.03125,0 1.59375,-1.28125 1.59375,-1.53125 0,-0.109375 -0.078125,-0.109375 -0.109375,-0.109375 -0.09375,0 -0.109375,0.046875 -0.140625,0.109375 -0.328125,1.078125 -1,1.3125 -1.3125,1.3125 -0.390625,0 -0.546875,-0.3125 -0.546875,-0.65625 0,-0.21875 0.046875,-0.4375 0.15625,-0.875 z m 0,0"
           style="stroke:none" />
      </symbol>
    </g>
    <g
       id="g5340">
      <symbol
         id="symbol9813"
         overflow="visible">
        <path
           id="path1024"
           d=""
           style="stroke:none" />
      </symbol>
      <symbol
         id="symbol9623"
         overflow="visible">
        <path
           id="path7980"
           d="M 6.328125,-5.765625 C 6.4375,-6.171875 6.609375,-6.46875 7.40625,-6.5 c 0.046875,0 0.171875,-0.015625 0.171875,-0.203125 0,0 0,-0.109375 -0.125,-0.109375 -0.328125,0 -0.6875,0.03125 -1.015625,0.03125 -0.34375,0 -0.71875,-0.03125 -1.046875,-0.03125 -0.0625,0 -0.171875,0 -0.171875,0.203125 C 5.21875,-6.5 5.3125,-6.5 5.390625,-6.5 c 0.578125,0.015625 0.6875,0.21875 0.6875,0.4375 0,0.03125 -0.03125,0.1875 -0.03125,0.203125 l -0.90625,3.5625 C 4.8125,-0.953125 3.65625,-0.09375 2.65625,-0.09375 c -0.671875,0 -1.203125,-0.4375 -1.203125,-1.296875 0,-0.015625 0,-0.328125 0.109375,-0.765625 L 2.515625,-6.046875 C 2.609375,-6.40625 2.625,-6.5 3.359375,-6.5 c 0.265625,0 0.34375,0 0.34375,-0.203125 0,-0.109375 -0.109375,-0.109375 -0.140625,-0.109375 -0.28125,0 -1,0.03125 -1.28125,0.03125 -0.28125,0 -1,-0.03125 -1.28125,-0.03125 -0.078125,0 -0.1875,0 -0.1875,0.203125 C 0.8125,-6.5 0.890625,-6.5 1.09375,-6.5 c 0.015625,0 0.203125,0 0.375,0.015625 0.171875,0.03125 0.265625,0.03125 0.265625,0.171875 0,0.046875 -0.109375,0.46875 -0.171875,0.703125 l -0.21875,0.875 C 1.25,-4.34375 0.78125,-2.46875 0.734375,-2.265625 0.671875,-2 0.671875,-1.84375 0.671875,-1.6875 c 0,1.203125 0.90625,1.90625 1.953125,1.90625 1.25,0 2.484375,-1.125 2.8125,-2.4375 z m 0,0"
           style="stroke:none" />
      </symbol>
      <symbol
         id="symbol9519"
         overflow="visible">
        <path
           id="path5782"
           d="M 3.328125,-3.015625 C 3.390625,-3.265625 3.625,-4.1875 4.3125,-4.1875 c 0.046875,0 0.296875,0 0.5,0.125 C 4.53125,-4 4.34375,-3.765625 4.34375,-3.515625 c 0,0.15625 0.109375,0.34375 0.375,0.34375 0.21875,0 0.53125,-0.171875 0.53125,-0.578125 0,-0.515625 -0.578125,-0.65625 -0.921875,-0.65625 -0.578125,0 -0.921875,0.53125 -1.046875,0.75 -0.25,-0.65625 -0.78125,-0.75 -1.078125,-0.75 -1.03125,0 -1.609375,1.28125 -1.609375,1.53125 0,0.109375 0.109375,0.109375 0.125,0.109375 0.078125,0 0.109375,-0.03125 0.125,-0.109375 0.34375,-1.0625 1,-1.3125 1.34375,-1.3125 0.1875,0 0.53125,0.09375 0.53125,0.671875 0,0.3125 -0.171875,0.96875 -0.53125,2.375 -0.15625,0.609375 -0.515625,1.03125 -0.953125,1.03125 -0.0625,0 -0.28125,0 -0.5,-0.125 0.25,-0.0625 0.46875,-0.265625 0.46875,-0.546875 0,-0.265625 -0.21875,-0.34375 -0.359375,-0.34375 -0.3125,0 -0.546875,0.25 -0.546875,0.578125 0,0.453125 0.484375,0.65625 0.921875,0.65625 0.671875,0 1.03125,-0.703125 1.046875,-0.75 0.125,0.359375 0.484375,0.75 1.078125,0.75 1.03125,0 1.59375,-1.28125 1.59375,-1.53125 0,-0.109375 -0.078125,-0.109375 -0.109375,-0.109375 -0.09375,0 -0.109375,0.046875 -0.140625,0.109375 -0.328125,1.078125 -1,1.3125 -1.3125,1.3125 -0.390625,0 -0.546875,-0.3125 -0.546875,-0.65625 0,-0.21875 0.046875,-0.4375 0.15625,-0.875 z m 0,0"
           style="stroke:none" />
      </symbol>
      <symbol
         id="symbol7739"
         overflow="visible">
        <path
           id="path1757"
           d=""
           style="stroke:none" />
      </symbol>
      <symbol
         id="symbol3109"
         overflow="visible">
        <path
           id="path1004"
           d="m 3.296875,2.390625 c 0,-0.03125 0,-0.046875 -0.171875,-0.21875 C 1.890625,0.921875 1.5625,-0.96875 1.5625,-2.5 c 0,-1.734375 0.375,-3.46875 1.609375,-4.703125 0.125,-0.125 0.125,-0.140625 0.125,-0.171875 0,-0.078125 -0.03125,-0.109375 -0.09375,-0.109375 -0.109375,0 -1,0.6875 -1.59375,1.953125 -0.5,1.09375 -0.625,2.203125 -0.625,3.03125 0,0.78125 0.109375,1.984375 0.65625,3.125 C 2.25,1.84375 3.09375,2.5 3.203125,2.5 c 0.0625,0 0.09375,-0.03125 0.09375,-0.109375 z m 0,0"
           style="stroke:none" />
      </symbol>
      <symbol
         id="symbol6844"
         overflow="visible">
        <path
           id="path6895"
           d="m 2.875,-2.5 c 0,-0.765625 -0.109375,-1.96875 -0.65625,-3.109375 -0.59375,-1.21875 -1.453125,-1.875 -1.546875,-1.875 -0.0625,0 -0.109375,0.046875 -0.109375,0.109375 0,0.03125 0,0.046875 0.1875,0.234375 0.984375,0.984375 1.546875,2.5625 1.546875,4.640625 0,1.71875 -0.359375,3.46875 -1.59375,4.71875 C 0.5625,2.34375 0.5625,2.359375 0.5625,2.390625 0.5625,2.453125 0.609375,2.5 0.671875,2.5 0.765625,2.5 1.671875,1.8125 2.25,0.546875 2.765625,-0.546875 2.875,-1.65625 2.875,-2.5 Z m 0,0"
           style="stroke:none" />
      </symbol>
    </g>
    <marker
       inkscape:collect="always"
       inkscape:stockid="Arrow1Mend"
       orient="auto"
       refY="0"
       refX="0"
       id="Arrow1Mend-9"
       style="overflow:visible"
       inkscape:isstock="true">
      <path
         id="path1113-3"
         d="M 0,0 5,-5 -12.5,0 5,5 Z"
         style="fill:#000000;fill-opacity:1;fill-rule:evenodd;stroke:#000000;stroke-width:1pt;stroke-opacity:1"
         transform="matrix(-0.4,0,0,-0.4,-4,0)" />
    </marker>
  </defs>
  <sodipodi:namedview
     inkscape:guide-bbox="true"
     showguides="true"
     inkscape:window-maximized="0"
     inkscape:window-y="23"
     inkscape:window-x="0"
     inkscape:window-height="855"
     inkscape:window-width="1440"
     showgrid="false"
     inkscape:document-rotation="0"
     inkscape:current-layer="layer1"
     inkscape:document-units="mm"
     inkscape:cy="140.53661"
     inkscape:cx="203.51024"
     inkscape:zoom="1.3552975"
     inkscape:pageshadow="2"
     inkscape:pageopacity="0.0"
     borderopacity="1.0"
     bordercolor="#666666"
     pagecolor="#ffffff"
     id="base" />
  <metadata
     id="metadata5">
    <rdf:RDF>
      <cc:Work
         rdf:about="">
        <dc:format>image/svg+xml</dc:format>
        <dc:type
           rdf:resource="http://purl.org/dc/dcmitype/StillImage" />
        <dc:title></dc:title>
      </cc:Work>
    </rdf:RDF>
  </metadata>
  <g
     id="layer1"
     inkscape:groupmode="layer"
     inkscape:label="Layer 1">
    <path
       transform="translate(-54.271603,-23.455111)"
       style="fill:#ffffff;fill-opacity:1;stroke:#4b4bff;stroke-width:0.799999;stroke-opacity:1"
       d="m 54.2716,79.4101 h 101.515 M 105.029,95.2681 V 26.5501 M 54.2716,-5.16586 c 0.17,0.01474 0.3401,4.992683 0.5101,5.006771 0.1701,0.014089 0.3401,4.809499 0.5102,4.822929 0.17,0.01343 0.34,4.63037 0.5101,4.64314 0.17,0.01278 0.3401,4.45532 0.5101,4.46742 0.1701,0.0121 0.3401,4.2841 0.5101,4.2955 0.1701,0.0115 0.3401,4.117 0.5102,4.1278 0.17,0.0107 0.34,3.9537 0.5101,3.9637 0.17,0.0101 0.3401,3.7943 0.5101,3.8037 0.1701,0.0094 0.3401,3.6386 0.5101,3.6473 0.1701,0.0087 0.3401,3.4868 0.5102,3.4948 0.17,0.0081 0.3401,3.3387 0.5101,3.3461 0.17,0.0073 0.3401,3.1942 0.5101,3.2008 0.1701,0.0067 0.3401,3.0535 0.5102,3.0595 0.17,0.0059 0.34,2.9163 0.5101,2.9215 0.17,0.0052 0.3401,2.7827 0.5101,2.7873 0.17,0.0045 0.3401,2.6526 0.5101,2.6564 0.1701,0.0038 0.3401,2.5261 0.5102,2.5292 0.17,0.003 0.34,2.4028 0.5101,2.4052 0.17,0.0024 0.3401,2.2832 0.5101,2.2848 0.1701,0.0017 0.3401,2.1667 0.5101,2.1677 0.1701,0.001 0.3401,2.0536 0.5102,2.0539 0.17,2e-4 0.34,1.9438 0.5101,1.9433 0.17,-4e-4 0.3401,1.8372 0.5101,1.8361 0.1701,-0.0012 0.3401,1.7338 0.5101,1.7319 0.1701,-0.0019 0.3401,1.6335 0.5102,1.6309 0.17,-0.0026 0.3401,1.5364 0.5101,1.5331 0.17,-0.0033 0.3401,1.4423 0.5101,1.4383 0.1701,-0.004 0.3401,1.3513 0.5102,1.3466 0.17,-0.0048 0.34,1.2631 0.5101,1.2577 0.17,-0.0054 0.3401,1.178 0.5101,1.1719 0.17,-0.0061 0.3401,1.0958 0.5101,1.0889 0.1701,-0.0068 0.3401,1.0164 0.5102,1.0089 0.17,-0.0075 0.34,0.9398 0.5101,0.9316 0.17,-0.0082 0.3401,0.866 0.5101,0.8571 0.1701,-0.009 0.3401,0.7949 0.5101,0.7853 0.1701,-0.0096 0.3401,0.7265 0.5102,0.7162 0.17,-0.0103 0.3401,0.6608 0.5101,0.6498 0.17,-0.0109 0.3401,0.5977 0.5101,0.586 0.1701,-0.0116 0.3401,0.5371 0.5101,0.5248 0.1701,-0.0123 0.3401,0.479 0.5102,0.466 0.17,-0.0129 0.3401,0.4235 0.5101,0.4098 0.17,-0.0136 0.3401,0.3703 0.5101,0.356 0.1701,-0.0142 0.3401,0.3196 0.5102,0.3047 0.17,-0.015 0.34,0.2711 0.5101,0.2556 0.17,-0.0156 0.3401,0.2251 0.5101,0.2089 0.1701,-0.0163 0.3401,0.1812 0.5101,0.1644 0.1701,-0.0168 0.3401,0.1397 0.5102,0.1223 0.17,-0.0175 0.34,0.1003 0.5101,0.0822 0.17,-0.018 0.3401,0.0632 0.5101,0.0445 0.1701,-0.0187 0.3401,0.028 0.5101,0.0087 0.1701,-0.0193 0.3401,-0.0051 0.5102,-0.025 0.17,-0.0199 0.3401,-0.0361 0.5101,-0.0566 0.17,-0.0205 0.3401,-0.0652 0.5101,-0.0862 0.1701,-0.0211 0.3401,-0.0924 0.5101,-0.114 0.1701,-0.0216 0.3401,-0.1175 0.5102,-0.1397 0.17,-0.0222 0.3401,-0.1409 0.5101,-0.1637 0.17,-0.0227 0.3401,-0.1625 0.5101,-0.1857 0.1701,-0.0233 0.3401,-0.1823 0.5102,-0.2061 0.17,-0.0238 0.34,-0.2004 0.5101,-0.2247 0.17,-0.0243 0.3401,-0.2167 0.5101,-0.2415 0.1701,-0.0249 0.3401,-0.2315 0.5101,-0.2568 0.1701,-0.0254 0.3401,-0.2446 0.5102,-0.2704 0.17,-0.0259 0.34,-0.2562 0.5101,-0.2825 0.17,-0.0263 0.3401,-0.2661 0.5101,-0.2929 0.1701,-0.0268 0.3401,-0.2747 0.5101,-0.302 0.1701,-0.0272 0.3401,-0.2818 0.5102,-0.3095 0.17,-0.0277 0.3401,-0.2876 0.5101,-0.3157 0.17,-0.0281 0.3401,-0.2919 0.5101,-0.3205 0.1701,-0.0285 0.3401,-0.295 0.5102,-0.3239 0.17,-0.029 0.34,-0.2968 0.5101,-0.3262 0.17,-0.0293 0.3401,-0.2973 0.5101,-0.327 0.17,-0.0298 0.3401,-0.2967 0.5101,-0.3269 0.1701,-0.0301 0.3401,-0.2948 0.5102,-0.3254 0.17,-0.0305 0.34,-0.2919 0.5101,-0.3228 0.17,-0.0309 0.3401,-0.288 0.5101,-0.3192 0.1701,-0.0313 0.3401,-0.2831 0.5101,-0.3146 0.1701,-0.0316 0.3401,-0.2771 0.5102,-0.309 0.17,-0.0318 0.34,-0.2701 0.5101,-0.3023 0.17,-0.0322 0.3401,-0.2624 0.5101,-0.2948 0.1701,-0.0325 0.3401,-0.2538 0.5101,-0.2865 0.1701,-0.0327 0.3401,-0.2442 0.5102,-0.2772 0.17,-0.033 0.3401,-0.234 0.5101,-0.2673 0.17,-0.0332 0.3401,-0.223 0.5101,-0.2565 0.1701,-0.0335 0.3401,-0.2114 0.5102,-0.2451 0.17,-0.0337 0.34,-0.199 0.5101,-0.2329 0.17,-0.034 0.3401,-0.1861 0.5101,-0.2203 0.17,-0.0341 0.3401,-0.1726 0.5101,-0.2069 0.1701,-0.0343 0.3401,-0.1586 0.5102,-0.1931 0.17,-0.0344 0.34,-0.1441 0.5101,-0.1787 0.17,-0.0346 0.3401,-0.1292 0.5101,-0.1639 0.17,-0.0348 0.34,-0.1139 0.51,-0.1488 0.17,-0.0349 0.34,-0.0981 0.51,-0.1331 0.17,-0.035 0.34,-0.0821 0.51,-0.1172 0.17,-0.0351 0.34,-0.0658 0.511,-0.101 0.17,-0.0352 0.34,-0.0493 0.51,-0.0846 0.17,-0.0353 0.34,-0.0325 0.51,-0.0679 0.17,-0.0353 0.34,-0.0157 0.51,-0.051 0.17,-0.0354 0.34,0.0012 0.51,-0.0342 0.17,-0.0354 0.34,0.0184 0.51,-0.017 0.17,-0.0354 0.34,0.0354 0.51,0 0.17,-0.0354 0.34,0.0524 0.51,0.017 0.17,-0.0354 0.34,0.0695 0.511,0.0342 0.17,-0.0354 0.34,0.0864 0.51,0.051 0.17,-0.0353 0.34,0.1032 0.51,0.0679 0.17,-0.0353 0.34,0.1198 0.51,0.0846 0.17,-0.0352 0.34,0.1361 0.51,0.101 0.17,-0.0351 0.34,0.1522 0.51,0.1172 0.17,-0.035 0.34,0.168 0.51,0.1331 0.17,-0.0349 0.34,0.1835 0.51,0.1488 0.17,-0.0348 0.341,0.1985 0.511,0.1639 0.17,-0.0346 0.34,0.2132 0.51,0.1787 0.17,-0.0344 0.34,0.2274 0.51,0.1931 0.17,-0.0343 0.34,0.2411 0.51,0.2069 0.17,-0.0341 0.34,0.2542 0.51,0.2203 0.17,-0.034 0.34,0.2666 0.51,0.2329 0.17,-0.0337 0.34,0.2786 0.51,0.2451 0.17,-0.0335 0.34,0.2898 0.51,0.2565 0.17,-0.0332 0.341,0.3003 0.511,0.2673 0.17,-0.033 0.34,0.3099 0.51,0.2772 0.17,-0.0327 0.34,0.3189 0.51,0.2865 0.17,-0.0325 0.34,0.327 0.51,0.2948 0.17,-0.0322 0.34,0.3342 0.51,0.3023 0.17,-0.0318 0.34,0.3405 0.51,0.309 0.17,-0.0316 0.34,0.3458 0.51,0.3146 0.17,-0.0313 0.34,0.3501 0.51,0.3192 0.17,-0.0309 0.341,0.3534 0.511,0.3228 0.17,-0.0305 0.34,0.3556 0.51,0.3254 0.17,-0.0301 0.34,0.3566 0.51,0.3269 0.17,-0.0298 0.34,0.3564 0.51,0.327 0.17,-0.0293 0.34,0.3551 0.51,0.3262 0.17,-0.029 0.34,0.3525 0.51,0.3239 0.17,-0.0285 0.34,0.3486 0.51,0.3205 0.17,-0.0281 0.34,0.3434 0.51,0.3157 0.171,-0.0277 0.341,0.3368 0.511,0.3095 0.17,-0.0272 0.34,0.3288 0.51,0.302 0.17,-0.0268 0.34,0.3192 0.51,0.2929 0.17,-0.0263 0.34,0.3083 0.51,0.2825 0.17,-0.0259 0.34,0.2957 0.51,0.2704 0.17,-0.0254 0.34,0.2816 0.51,0.2568 0.17,-0.0249 0.34,0.2658 0.51,0.2415 0.17,-0.0243 0.34,0.2485 0.51,0.2247 0.171,-0.0238 0.341,0.2293 0.511,0.2061 0.17,-0.0233 0.34,0.2085 0.51,0.1857 0.17,-0.0227 0.34,0.1859 0.51,0.1637 0.17,-0.0222 0.34,0.1613 0.51,0.1397 0.17,-0.0216 0.34,0.135 0.51,0.114 0.17,-0.0211 0.34,0.1067 0.51,0.0862 0.17,-0.0205 0.34,0.0765 0.51,0.0566 0.17,-0.0199 0.34,0.0443 0.51,0.025 0.171,-0.0193 0.341,0.01 0.511,-0.0087 0.17,-0.0187 0.34,-0.0264 0.51,-0.0445 0.17,-0.018 0.34,-0.0648 0.51,-0.0822 0.17,-0.0175 0.34,-0.1055 0.51,-0.1223 0.17,-0.0168 0.34,-0.1482 0.51,-0.1644 0.17,-0.0163 0.34,-0.1934 0.51,-0.2089 0.17,-0.0156 0.34,-0.2407 0.51,-0.2556 0.17,-0.015 0.34,-0.2904 0.511,-0.3047 0.17,-0.0142 0.34,-0.3423 0.51,-0.356 0.17,-0.0136 0.34,-0.3968 0.51,-0.4098 0.17,-0.0129 0.34,-0.4537 0.51,-0.466 0.17,-0.0123 0.34,-0.5131 0.51,-0.5248 0.17,-0.0116 0.34,-0.575 0.51,-0.586 0.17,-0.0109 0.34,-0.6395 0.51,-0.6498 0.17,-0.0103 0.34,-0.7066 0.51,-0.7162 0.17,-0.0096 0.34,-0.7764 0.511,-0.7853 0.17,-0.009 0.34,-0.8489 0.51,-0.8571 0.17,-0.0082 0.34,-0.9241 0.51,-0.9316 0.17,-0.0075 0.34,-1.002 0.51,-1.0089 0.17,-0.0068 0.34,-1.0828 0.51,-1.0889 0.17,-0.0061 0.34,-1.1665 0.51,-1.1719 0.17,-0.0054 0.34,-1.253 0.51,-1.2577 0.17,-0.0048 0.34,-1.3426 0.51,-1.3466 0.17,-0.004 0.34,-1.435 0.511,-1.4383 0.17,-0.0033 0.34,-1.5305 0.51,-1.5331 0.17,-0.0026 0.34,-1.629 0.51,-1.6309 0.17,-0.0019 0.34,-1.7308 0.51,-1.7319 0.17,-0.0012 0.34,-1.8356 0.51,-1.8361 0.17,-4e-4 0.34,-1.9436 0.51,-1.9433 0.17,2e-4 0.34,-2.0549 0.51,-2.0539 0.17,0.001 0.34,-2.1693 0.51,-2.1677 0.17,0.0017 0.341,-2.2872 0.511,-2.2848 0.17,0.0024 0.34,-2.4083 0.51,-2.4052 0.17,0.003 0.34,-2.533 0.51,-2.5292 0.17,0.0038 0.34,-2.661 0.51,-2.6564 0.17,0.0045 0.34,-2.7925 0.51,-2.7873 0.17,0.0052 0.34,-2.9275 0.51,-2.9215 0.17,0.0059 0.34,-3.0661 0.51,-3.0595 0.17,0.0067 0.34,-3.2082 0.51,-3.2008 0.17,0.0073 0.341,-3.3541 0.511,-3.3461 0.17,0.0081 0.34,-3.5035 0.51,-3.4948 0.17,0.0087 0.34,-3.6567 0.51,-3.6473 0.17,0.0094 0.34,-3.8137 0.51,-3.8037 0.17,0.0101 0.34,-3.9745 0.51,-3.9637 0.17,0.0107 0.34,-4.1392 0.51,-4.1278 0.17,0.0115 0.34,-4.3076 0.51,-4.2955 0.17,0.0121 0.34,-4.48019 0.51,-4.46742 0.17,0.01278 0.341,-4.65657 0.511,-4.64314 0.17,0.01343 0.34,-4.837017 0.51,-4.822929 0.17,0.014089 0.34,-5.021511 0.51,-5.006771"
       title="2*x**4 - 4*x**2"
       clip-path="url(#clipPath1316)"
       id="path850" />
    <path
       id="path861"
       d="M 25.597387,54.315569 V 57.54427"
       style="fill:none;stroke:#000000;stroke-width:0.4;stroke-linecap:butt;stroke-linejoin:miter;stroke-miterlimit:4;stroke-dasharray:none;stroke-opacity:1" />
    <path
       style="fill:none;stroke:#000000;stroke-width:0.4;stroke-linecap:butt;stroke-linejoin:miter;stroke-miterlimit:4;stroke-dasharray:none;stroke-opacity:1"
       d="m 76.314504,54.327952 v 3.228701"
       id="path861-4" />
    <g
       inkscape:label=""
       transform="matrix(0.93010381,0,0,0.93010381,-11.704658,-24.507057)"
       id="g898">
      <g
         id="g168">
        <g
           id="g3729"
           style="fill:#000000;fill-opacity:1">
          <use
             height="100%"
             width="100%"
             id="use3150"
             y="81.962997"
             x="91.925003"
             xlink:href="#symbol4470" />
        </g>
      </g>
    </g>
    <g
       inkscape:label=""
       transform="matrix(0.93010381,0,0,0.93010381,-66.386009,-24.461052)"
       id="g942">
      <g
         id="g5739">
        <g
           id="g8404"
           style="fill:#000000;fill-opacity:1">
          <use
             height="100%"
             width="100%"
             id="use5087"
             y="81.962997"
             x="91.925003"
             xlink:href="#symbol615" />
        </g>
        <g
           id="g8323"
           style="fill:#000000;fill-opacity:1">
          <use
             height="100%"
             width="100%"
             id="use8525"
             y="81.962997"
             x="99.674004"
             xlink:href="#symbol3522" />
        </g>
      </g>
    </g>
    <g
       inkscape:label=""
       transform="translate(-0.21278061,-16.37681)"
       id="g1001">
      <g
         id="g5082">
        <g
           id="g9721"
           style="fill:#000000;fill-opacity:1">
          <use
             height="100%"
             width="100%"
             id="use2554"
             y="81.962997"
             x="91.925003"
             xlink:href="#symbol5331" />
        </g>
      </g>
    </g>
    <g
       inkscape:label=""
       transform="matrix(0.80125196,0,0,0.80125196,-42.893085,-54.214555)"
       id="g1077">
      <g
         id="g693">
        <g
           id="g653"
           style="fill:#000000;fill-opacity:1">
          <use
             height="100%"
             width="100%"
             id="use7454"
             y="81.962997"
             x="91.925003"
             xlink:href="#symbol9623" />
        </g>
        <g
           id="g9377"
           style="fill:#000000;fill-opacity:1">
          <use
             height="100%"
             width="100%"
             id="use4118"
             y="81.962997"
             x="99.814003"
             xlink:href="#symbol3109" />
        </g>
        <g
           id="g1156"
           style="fill:#000000;fill-opacity:1">
          <use
             height="100%"
             width="100%"
             id="use8532"
             y="81.962997"
             x="103.688"
             xlink:href="#symbol9519" />
        </g>
        <g
           id="g1479"
           style="fill:#000000;fill-opacity:1">
          <use
             height="100%"
             width="100%"
             id="use8244"
             y="81.962997"
             x="109.382"
             xlink:href="#symbol6844" />
        </g>
      </g>
    </g>
    <path
       id="path1408"
       d="M 50.77664,71.803401 V 1.5765451"
       style="fill:none;stroke:#000000;stroke-width:0.8;stroke-linecap:butt;stroke-linejoin:miter;stroke-miterlimit:4;stroke-dasharray:none;stroke-opacity:1;marker-end:url(#Arrow1Mend)" />
    <path
       style="fill:none;stroke:#000000;stroke-width:0.8;stroke-linecap:butt;stroke-linejoin:miter;stroke-miterlimit:4;stroke-dasharray:none;stroke-opacity:1;marker-end:url(#Arrow1Mend-9)"
       d="M 0,55.953918 H 104.27274"
       id="path1408-3" />
    <path
       sodipodi:nodetypes="cc"
       id="path1615"
       d="m 29.862942,34.497744 c 0,0 16.773291,-19.457519 41.915013,0.264964"
       style="fill:none;stroke:#e14b4b;stroke-width:0.5;stroke-linecap:butt;stroke-linejoin:miter;stroke-miterlimit:4;stroke-dasharray:none;stroke-opacity:1;marker-start:url(#Arrow1Mstart);marker-end:url(#marker1619)" />
  </g>
</svg>
