<?xml version="1.0" encoding="UTF-8" standalone="no"?>
<svg
   xmlns:dc="http://purl.org/dc/elements/1.1/"
   xmlns:cc="http://creativecommons.org/ns#"
   xmlns:rdf="http://www.w3.org/1999/02/22-rdf-syntax-ns#"
   xmlns:svg="http://www.w3.org/2000/svg"
   xmlns="http://www.w3.org/2000/svg"
   xmlns:xlink="http://www.w3.org/1999/xlink"
   xmlns:sodipodi="http://sodipodi.sourceforge.net/DTD/sodipodi-0.dtd"
   xmlns:inkscape="http://www.inkscape.org/namespaces/inkscape"
   sodipodi:docname="escape_over_barrier.svg"
   inkscape:version="1.0 (4035a4f, 2020-05-01)"
   width="106mm"
   height="66mm"
   viewBox="0 0 106 66"
   version="1.1"
   id="svg8">
  <defs
     id="defs2">
    <marker
       inkscape:stockid="Arrow1Mstart"
       orient="auto"
       refY="0"
       refX="0"
       id="Arrow1Mstart"
       style="overflow:visible"
       inkscape:isstock="true">
      <path
         id="path1110"
         d="M 0,0 5,-5 -12.5,0 5,5 Z"
         style="fill:#e14b4b;fill-opacity:1;fill-rule:evenodd;stroke:#e14b4b;stroke-width:1pt;stroke-opacity:1"
         transform="matrix(0.4,0,0,0.4,4,0)" />
    </marker>
    <marker
       inkscape:stockid="Arrow1Mend"
       orient="auto"
       refY="0"
       refX="0"
       id="marker1619"
       style="overflow:visible"
       inkscape:isstock="true">
      <path
         id="path1617"
         d="M 0,0 5,-5 -12.5,0 5,5 Z"
         style="fill:#e14b4b;fill-opacity:1;fill-rule:evenodd;stroke:#e14b4b;stroke-width:1pt;stroke-opacity:1"
         transform="matrix(-0.4,0,0,-0.4,-4,0)" />
    </marker>
    <marker
       inkscape:stockid="Arrow1Mend"
       orient="auto"
       refY="0"
       refX="0"
       id="Arrow1Mend"
       style="overflow:visible"
       inkscape:isstock="true">
      <path
         id="path1113"
         d="M 0,0 5,-5 -12.5,0 5,5 Z"
         style="fill:#000000;fill-opacity:1;fill-rule:evenodd;stroke:#000000;stroke-width:1pt;stroke-opacity:1"
         transform="matrix(-0.4,0,0,-0.4,-4,0)" />
    </marker>
    <marker
       inkscape:stockid="Arrow1Lend"
       orient="auto"
       refY="0"
       refX="0"
       id="marker1412"
       style="overflow:visible"
       inkscape:isstock="true">
      <path
         id="path1410"
         d="M 0,0 5,-5 -12.5,0 5,5 Z"
         style="fill:#000000;fill-opacity:1;fill-rule:evenodd;stroke:#000000;stroke-width:1pt;stroke-opacity:1"
         transform="matrix(-0.8,0,0,-0.8,-10,0)" />
    </marker>
    <marker
       inkscape:stockid="Arrow1Lend"
       orient="auto"
       refY="0"
       refX="0"
       id="marker1388"
       style="overflow:visible"
       inkscape:isstock="true">
      <path
         id="path1386"
         d="M 0,0 5,-5 -12.5,0 5,5 Z"
         style="fill:#ffffff;fill-opacity:1;fill-rule:evenodd;stroke:#4c0000;stroke-width:1pt;stroke-opacity:1"
         transform="matrix(-0.8,0,0,-0.8,-10,0)" />
    </marker>
    <marker
       inkscape:stockid="Arrow1Lend"
       orient="auto"
       refY="0"
       refX="0"
       id="Arrow1Lend"
       style="overflow:visible"
       inkscape:isstock="true">
      <path
         id="path1107"
         d="M 0,0 5,-5 -12.5,0 5,5 Z"
         style="fill:#ffffff;fill-opacity:1;fill-rule:evenodd;stroke:#4c0000;stroke-width:1pt;stroke-opacity:1"
         transform="matrix(-0.8,0,0,-0.8,-10,0)" />
    </marker>
    <clipPath
       id="clipPath1316">
      <rect
         id="rect843"
         style="fill:#ffffff;fill-opacity:1;stroke:none;stroke-width:0.799999"
         width="101.51523"
         height="68.717995"
         x="54.271603"
         y="26.550135" />
    </clipPath>
    <g
       id="g3987">
      <symbol
         overflow="visible"
         id="symbol8363">
        <path
           style="stroke:none"
           d=""
           id="path7935" />
      </symbol>
      <symbol
         overflow="visible"
         id="symbol4470">
        <path
           style="stroke:none"
           d="M 3.71875,-3.765625 C 3.53125,-4.140625 3.25,-4.40625 2.796875,-4.40625 c -1.15625,0 -2.390625,1.46875 -2.390625,2.921875 0,0.9375 0.546875,1.59375 1.3125,1.59375 0.203125,0 0.703125,-0.046875 1.296875,-0.75 0.078125,0.421875 0.4375,0.75 0.90625,0.75 0.359375,0 0.578125,-0.234375 0.75,-0.546875 0.15625,-0.359375 0.296875,-0.96875 0.296875,-0.984375 0,-0.109375 -0.09375,-0.109375 -0.125,-0.109375 -0.09375,0 -0.109375,0.046875 -0.140625,0.1875 -0.171875,0.640625 -0.34375,1.234375 -0.75,1.234375 -0.28125,0 -0.296875,-0.265625 -0.296875,-0.453125 0,-0.21875 0.015625,-0.3125 0.125,-0.75 C 3.890625,-1.71875 3.90625,-1.828125 4,-2.203125 L 4.359375,-3.59375 c 0.0625,-0.28125 0.0625,-0.296875 0.0625,-0.34375 0,-0.171875 -0.109375,-0.265625 -0.28125,-0.265625 -0.25,0 -0.390625,0.21875 -0.421875,0.4375 z M 3.078125,-1.1875 C 3.015625,-1 3.015625,-0.984375 2.875,-0.8125 2.4375,-0.265625 2.03125,-0.109375 1.75,-0.109375 c -0.5,0 -0.640625,-0.546875 -0.640625,-0.9375 0,-0.5 0.3125,-1.71875 0.546875,-2.1875 0.3125,-0.578125 0.75,-0.953125 1.15625,-0.953125 0.640625,0 0.78125,0.8125 0.78125,0.875 0,0.0625 -0.015625,0.125 -0.03125,0.171875 z m 0,0"
           id="path9246" />
      </symbol>
    </g>
    <g
       id="g6047">
      <symbol
         overflow="visible"
         id="symbol2045">
        <path
           style="stroke:none"
           d=""
           id="path7578" />
      </symbol>
      <symbol
         overflow="visible"
         id="symbol615">
        <path
           style="stroke:none"
           d="m 6.5625,-2.296875 c 0.171875,0 0.359375,0 0.359375,-0.203125 0,-0.1875 -0.1875,-0.1875 -0.359375,-0.1875 H 1.171875 c -0.171875,0 -0.34375,0 -0.34375,0.1875 0,0.203125 0.171875,0.203125 0.34375,0.203125 z m 0,0"
           id="path3159" />
      </symbol>
      <symbol
         overflow="visible"
         id="symbol8712">
        <path
           style="stroke:none"
           d=""
           id="path3212" />
      </symbol>
      <symbol
         overflow="visible"
         id="symbol3522">
        <path
           style="stroke:none"
           d="M 3.71875,-3.765625 C 3.53125,-4.140625 3.25,-4.40625 2.796875,-4.40625 c -1.15625,0 -2.390625,1.46875 -2.390625,2.921875 0,0.9375 0.546875,1.59375 1.3125,1.59375 0.203125,0 0.703125,-0.046875 1.296875,-0.75 0.078125,0.421875 0.4375,0.75 0.90625,0.75 0.359375,0 0.578125,-0.234375 0.75,-0.546875 0.15625,-0.359375 0.296875,-0.96875 0.296875,-0.984375 0,-0.109375 -0.09375,-0.109375 -0.125,-0.109375 -0.09375,0 -0.109375,0.046875 -0.140625,0.1875 -0.171875,0.640625 -0.34375,1.234375 -0.75,1.234375 -0.28125,0 -0.296875,-0.265625 -0.296875,-0.453125 0,-0.21875 0.015625,-0.3125 0.125,-0.75 C 3.890625,-1.71875 3.90625,-1.828125 4,-2.203125 L 4.359375,-3.59375 c 0.0625,-0.28125 0.0625,-0.296875 0.0625,-0.34375 0,-0.171875 -0.109375,-0.265625 -0.28125,-0.265625 -0.25,0 -0.390625,0.21875 -0.421875,0.4375 z M 3.078125,-1.1875 C 3.015625,-1 3.015625,-0.984375 2.875,-0.8125 2.4375,-0.265625 2.03125,-0.109375 1.75,-0.109375 c -0.5,0 -0.640625,-0.546875 -0.640625,-0.9375 0,-0.5 0.3125,-1.71875 0.546875,-2.1875 0.3125,-0.578125 0.75,-0.953125 1.15625,-0.953125 0.640625,0 0.78125,0.8125 0.78125,0.875 0,0.0625 -0.015625,0.125 -0.03125,0.171875 z m 0,0"
           id="path5044" />
      </symbol>
    </g>
    <g
       id="g6213">
      <symbol
         overflow="visible"
         id="symbol5131">
        <path
           style="stroke:none"
           d=""
           id="path4070" />
      </symbol>
      <symbol
         overflow="visible"
         id="symbol5331">
        <path
           style="stroke:none"
           d="M 3.328125,-3.015625 C 3.390625,-3.265625 3.625,-4.1875 4.3125,-4.1875 c 0.046875,0 0.296875,0 0.5,0.125 C 4.53125,-4 4.34375,-3.765625 4.34375,-3.515625 c 0,0.15625 0.109375,0.34375 0.375,0.34375 0.21875,0 0.53125,-0.171875 0.53125,-0.578125 0,-0.515625 -0.578125,-0.65625 -0.921875,-0.65625 -0.578125,0 -0.921875,0.53125 -1.046875,0.75 -0.25,-0.65625 -0.78125,-0.75 -1.078125,-0.75 -1.03125,0 -1.609375,1.28125 -1.609375,1.53125 0,0.109375 0.109375,0.109375 0.125,0.109375 0.078125,0 0.109375,-0.03125 0.125,-0.109375 0.34375,-1.0625 1,-1.3125 1.34375,-1.3125 0.1875,0 0.53125,0.09375 0.53125,0.671875 0,0.3125 -0.171875,0.96875 -0.53125,2.375 -0.15625,0.609375 -0.515625,1.03125 -0.953125,1.03125 -0.0625,0 -0.28125,0 -0.5,-0.125 0.25,-0.0625 0.46875,-0.265625 0.46875,-0.546875 0,-0.265625 -0.21875,-0.34375 -0.359375,-0.34375 -0.3125,0 -0.546875,0.25 -0.546875,0.578125 0,0.453125 0.484375,0.65625 0.921875,0.65625 0.671875,0 1.03125,-0.703125 1.046875,-0.75 0.125,0.359375 0.484375,0.75 1.078125,0.75 1.03125,0 1.59375,-1.28125 1.59375,-1.53125 0,-0.109375 -0.078125,-0.109375 -0.109375,-0.109375 -0.09375,0 -0.109375,0.046875 -0.140625,0.109375 -0.328125,1.078125 -1,1.3125 -1.3125,1.3125 -0.390625,0 -0.546875,-0.3125 -0.546875,-0.65625 0,-0.21875 0.046875,-0.4375 0.15625,-0.875 z m 0,0"
           id="path4049" />
      </symbol>
    </g>
    <g
       id="g5340">
      <symbol
         overflow="visible"
         id="symbol9813">
        <path
           style="stroke:none"
           d=""
           id="path1024" />
      </symbol>
      <symbol
         overflow="visible"
         id="symbol9623">
        <path
           style="stroke:none"
           d="M 6.328125,-5.765625 C 6.4375,-6.171875 6.609375,-6.46875 7.40625,-6.5 c 0.046875,0 0.171875,-0.015625 0.171875,-0.203125 0,0 0,-0.109375 -0.125,-0.109375 -0.328125,0 -0.6875,0.03125 -1.015625,0.03125 -0.34375,0 -0.71875,-0.03125 -1.046875,-0.03125 -0.0625,0 -0.171875,0 -0.171875,0.203125 C 5.21875,-6.5 5.3125,-6.5 5.390625,-6.5 c 0.578125,0.015625 0.6875,0.21875 0.6875,0.4375 0,0.03125 -0.03125,0.1875 -0.03125,0.203125 l -0.90625,3.5625 C 4.8125,-0.953125 3.65625,-0.09375 2.65625,-0.09375 c -0.671875,0 -1.203125,-0.4375 -1.203125,-1.296875 0,-0.015625 0,-0.328125 0.109375,-0.765625 L 2.515625,-6.046875 C 2.609375,-6.40625 2.625,-6.5 3.359375,-6.5 c 0.265625,0 0.34375,0 0.34375,-0.203125 0,-0.109375 -0.109375,-0.109375 -0.140625,-0.109375 -0.28125,0 -1,0.03125 -1.28125,0.03125 -0.28125,0 -1,-0.03125 -1.28125,-0.03125 -0.078125,0 -0.1875,0 -0.1875,0.203125 C 0.8125,-6.5 0.890625,-6.5 1.09375,-6.5 c 0.015625,0 0.203125,0 0.375,0.015625 0.171875,0.03125 0.265625,0.03125 0.265625,0.171875 0,0.046875 -0.109375,0.46875 -0.171875,0.703125 l -0.21875,0.875 C 1.25,-4.34375 0.78125,-2.46875 0.734375,-2.265625 0.671875,-2 0.671875,-1.84375 0.671875,-1.6875 c 0,1.203125 0.90625,1.90625 1.953125,1.90625 1.25,0 2.484375,-1.125 2.8125,-2.4375 z m 0,0"
           id="path7980" />
      </symbol>
      <symbol
         overflow="visible"
         id="symbol9519">
        <path
           style="stroke:none"
           d="M 3.328125,-3.015625 C 3.390625,-3.265625 3.625,-4.1875 4.3125,-4.1875 c 0.046875,0 0.296875,0 0.5,0.125 C 4.53125,-4 4.34375,-3.765625 4.34375,-3.515625 c 0,0.15625 0.109375,0.34375 0.375,0.34375 0.21875,0 0.53125,-0.171875 0.53125,-0.578125 0,-0.515625 -0.578125,-0.65625 -0.921875,-0.65625 -0.578125,0 -0.921875,0.53125 -1.046875,0.75 -0.25,-0.65625 -0.78125,-0.75 -1.078125,-0.75 -1.03125,0 -1.609375,1.28125 -1.609375,1.53125 0,0.109375 0.109375,0.109375 0.125,0.109375 0.078125,0 0.109375,-0.03125 0.125,-0.109375 0.34375,-1.0625 1,-1.3125 1.34375,-1.3125 0.1875,0 0.53125,0.09375 0.53125,0.671875 0,0.3125 -0.171875,0.96875 -0.53125,2.375 -0.15625,0.609375 -0.515625,1.03125 -0.953125,1.03125 -0.0625,0 -0.28125,0 -0.5,-0.125 0.25,-0.0625 0.46875,-0.265625 0.46875,-0.546875 0,-0.265625 -0.21875,-0.34375 -0.359375,-0.34375 -0.3125,0 -0.546875,0.25 -0.546875,0.578125 0,0.453125 0.484375,0.65625 0.921875,0.65625 0.671875,0 1.03125,-0.703125 1.046875,-0.75 0.125,0.359375 0.484375,0.75 1.078125,0.75 1.03125,0 1.59375,-1.28125 1.59375,-1.53125 0,-0.109375 -0.078125,-0.109375 -0.109375,-0.109375 -0.09375,0 -0.109375,0.046875 -0.140625,0.109375 -0.328125,1.078125 -1,1.3125 -1.3125,1.3125 -0.390625,0 -0.546875,-0.3125 -0.546875,-0.65625 0,-0.21875 0.046875,-0.4375 0.15625,-0.875 z m 0,0"
           id="path5782" />
      </symbol>
      <symbol
         overflow="visible"
         id="symbol7739">
        <path
           style="stroke:none"
           d=""
           id="path1757" />
      </symbol>
      <symbol
         overflow="visible"
         id="symbol3109">
        <path
           style="stroke:none"
           d="m 3.296875,2.390625 c 0,-0.03125 0,-0.046875 -0.171875,-0.21875 C 1.890625,0.921875 1.5625,-0.96875 1.5625,-2.5 c 0,-1.734375 0.375,-3.46875 1.609375,-4.703125 0.125,-0.125 0.125,-0.140625 0.125,-0.171875 0,-0.078125 -0.03125,-0.109375 -0.09375,-0.109375 -0.109375,0 -1,0.6875 -1.59375,1.953125 -0.5,1.09375 -0.625,2.203125 -0.625,3.03125 0,0.78125 0.109375,1.984375 0.65625,3.125 C 2.25,1.84375 3.09375,2.5 3.203125,2.5 c 0.0625,0 0.09375,-0.03125 0.09375,-0.109375 z m 0,0"
           id="path1004" />
      </symbol>
      <symbol
         overflow="visible"
         id="symbol6844">
        <path
           style="stroke:none"
           d="m 2.875,-2.5 c 0,-0.765625 -0.109375,-1.96875 -0.65625,-3.109375 -0.59375,-1.21875 -1.453125,-1.875 -1.546875,-1.875 -0.0625,0 -0.109375,0.046875 -0.109375,0.109375 0,0.03125 0,0.046875 0.1875,0.234375 0.984375,0.984375 1.546875,2.5625 1.546875,4.640625 0,1.71875 -0.359375,3.46875 -1.59375,4.71875 C 0.5625,2.34375 0.5625,2.359375 0.5625,2.390625 0.5625,2.453125 0.609375,2.5 0.671875,2.5 0.765625,2.5 1.671875,1.8125 2.25,0.546875 2.765625,-0.546875 2.875,-1.65625 2.875,-2.5 Z m 0,0"
           id="path6895" />
      </symbol>
    </g>
    <marker
       inkscape:isstock="true"
       style="overflow:visible"
       id="Arrow1Mend-9"
       refX="0"
       refY="0"
       orient="auto"
       inkscape:stockid="Arrow1Mend"
       inkscape:collect="always">
      <path
         transform="matrix(-0.4,0,0,-0.4,-4,0)"
         style="fill:#000000;fill-opacity:1;fill-rule:evenodd;stroke:#000000;stroke-width:1pt;stroke-opacity:1"
         d="M 0,0 5,-5 -12.5,0 5,5 Z"
         id="path1113-3" />
    </marker>
    <clipPath
       id="clipPath5262">
      <rect
         y="-1.1279573"
         x="0.011892979"
         height="73.713913"
         width="106.04973"
         style="fill:#ffffff;stroke:#4b4bff;stroke-width:0.823786"
         id="rect1008" />
    </clipPath>
    <clipPath
       id="clipPath4742">
      <rect
         y="0"
         x="0.20166068"
         height="71.589539"
         width="106.07352"
         style="fill:#ffffff;stroke:#4b4bff;stroke-width:0.799999"
         id="rect1231" />
    </clipPath>
    <clipPath
       id="clipPath791">
      <rect
         y="0"
         x="0.20166068"
         height="71.589539"
         width="106.07352"
         style="fill:#ffffff;stroke:#4b4bff;stroke-width:0.799999"
         id="rect1327" />
    </clipPath>
    <clipPath
       id="clipPath2864">
      <rect
         y="0"
         x="0.20166068"
         height="71.589539"
         width="106.07352"
         style="fill:#ffffff;stroke:#4b4bff;stroke-width:0.799999"
         id="rect1425" />
    </clipPath>
    <clipPath
       id="clipPath887">
      <rect
         y="0"
         x="0.20166068"
         height="71.589539"
         width="106.07352"
         style="fill:#ffffff;stroke:#4b4bff;stroke-width:0.799999"
         id="rect1526" />
    </clipPath>
    <clipPath
       id="clipPath1209">
      <rect
         y="0"
         x="0.20166068"
         height="71.589539"
         width="106.07352"
         style="fill:#ffffff;stroke:#4b4bff;stroke-width:0.799999"
         id="rect1630" />
    </clipPath>
    <clipPath
       id="clipPath4477">
      <rect
         y="0"
         x="0.20166068"
         height="71.589539"
         width="106.07352"
         style="fill:#ffffff;stroke:#4b4bff;stroke-width:0.799999"
         id="rect1737" />
    </clipPath>
    <clipPath
       id="clipPath1381">
      <rect
         y="0"
         x="0"
         height="71.992859"
         width="107.08182"
         style="fill:#ffffff;stroke:#4b4bff;stroke-width:0.799999"
         id="rect1849" />
    </clipPath>
    <g
       id="g5875">
      <symbol
         id="symbol9171"
         overflow="visible">
        <path
           id="path7459"
           d=""
           style="stroke:none" />
      </symbol>
      <symbol
         id="symbol1973"
         overflow="visible">
        <path
           id="path2673"
           d="m 4.578125,-3.1875 c 0,-0.796875 -0.046875,-1.59375 -0.390625,-2.328125 -0.453125,-0.96875 -1.28125,-1.125 -1.6875,-1.125 -0.609375,0 -1.328125,0.265625 -1.75,1.1875 -0.3125,0.6875 -0.359375,1.46875 -0.359375,2.265625 0,0.75 0.03125,1.640625 0.453125,2.40625 0.421875,0.796875 1.15625,1 1.640625,1 0.53125,0 1.296875,-0.203125 1.734375,-1.15625 0.3125,-0.6875 0.359375,-1.46875 0.359375,-2.25 z M 2.484375,0 C 2.09375,0 1.5,-0.25 1.328125,-1.203125 1.21875,-1.796875 1.21875,-2.71875 1.21875,-3.3125 c 0,-0.640625 0,-1.296875 0.078125,-1.828125 0.1875,-1.1875 0.9375,-1.28125 1.1875,-1.28125 0.328125,0 0.984375,0.1875 1.171875,1.171875 0.109375,0.5625 0.109375,1.3125 0.109375,1.9375 0,0.75 0,1.421875 -0.109375,2.0625 C 3.5,-0.296875 2.9375,0 2.484375,0 Z m 0,0"
           style="stroke:none" />
      </symbol>
    </g>
  </defs>
  <sodipodi:namedview
     id="base"
     pagecolor="#ffffff"
     bordercolor="#666666"
     borderopacity="1.0"
     inkscape:pageopacity="0.0"
     inkscape:pageshadow="2"
     inkscape:zoom="1.3120224"
     inkscape:cx="166.16932"
     inkscape:cy="122.9807"
     inkscape:document-units="mm"
     inkscape:current-layer="layer2"
     inkscape:document-rotation="0"
     showgrid="false"
     inkscape:window-width="1440"
     inkscape:window-height="855"
     inkscape:window-x="0"
     inkscape:window-y="23"
     inkscape:window-maximized="0"
     showguides="true"
     inkscape:guide-bbox="true">
    <sodipodi:guide
       id="guide1941"
       orientation="1,0"
       position="17.967051,34.212157" />
    <sodipodi:guide
       id="guide1949"
       orientation="1,0"
       position="65.451399,4.8374553" />
    <sodipodi:guide
       id="guide2105"
       orientation="0,-1"
       position="-12.502963,22.593133" />
  </sodipodi:namedview>
  <metadata
     id="metadata5">
    <rdf:RDF>
      <cc:Work
         rdf:about="">
        <dc:format>image/svg+xml</dc:format>
        <dc:type
           rdf:resource="http://purl.org/dc/dcmitype/StillImage" />
        <dc:title></dc:title>
      </cc:Work>
    </rdf:RDF>
  </metadata>
  <g
     style="display:inline"
     inkscape:label="Layer 1"
     inkscape:groupmode="layer"
     id="layer1">
    <path
       transform="matrix(0.90196078,0,0,0.90196078,0,9.6414521)"
       sodipodi:nodetypes="ccsssccccssscssssssscscscccccsssscscscscccscscscsscscscscsccsccsscscscscsscccccccscscscsscssscscscscscscccccccccccccccccccccccccccccccccccccccccccccccccccccccccccccccccccccccccccccccccccccsssccccccc"
       style="fill:#ffffff;stroke:#4b4bff;stroke-width:0.799999"
       d="m 0,93.7097 c 0.179367,0.0016 0.358733,5.8309 0.5381,5.8322 0.179366,0.0014 0.358733,8.4351 0.5381,8.4361 0.17937,0.001 0.35873,13.333 0.5381,13.334 0.17937,0.001 0.35873,24.315 0.5381,24.316 0.17936,0.001 0.35873,58.532 0.5381,58.532 -0.7304918,977.0274 -14.320192,-961.46531 1.6143,-268.6902 0.17936,-4e-4 0.35873,49.2415 0.5381,49.2409 0.17936,-7e-4 0.35873,21.7187 0.5381,21.7178 0.17936,-9.1e-4 0.35873,12.216 0.5381,12.2148 0.17936,-0.0012 0.35873,7.8173 0.5381,7.8159 0.17936,-0.0014 0.35873,5.4203 0.53809,5.4186 0.17937,-0.0017 0.35874,3.9689 0.5381,3.9669 0.17937,-0.0019 0.35874,3.0223 0.5381,3.0201 0.17937,-0.0022 0.35874,2.3697 0.5381,2.3673 0.17937,-0.0024 0.35874,1.9002 0.5381,1.8975 0.17937,-0.0027 0.35874,1.5505 0.5381,1.5476 0.17937,-0.0029 0.35871,1.2826 0.53811,1.2794 0.1794,-0.0032 0.3587,1.0724 0.5381,1.069 0.1794,-0.0034 0.3587,0.9042 0.5381,0.9005 0.1794,-0.0037 0.3587,0.7671 0.5381,0.7632 0.1794,-0.004 0.3587,0.6537 0.5381,0.6495 0.1794,-0.0042 0.3587,0.5588 0.5381,0.5544 0.1794,-0.0045 0.3587,0.4782 0.5381,0.4735 0.1794,-0.0047 0.3587,0.4092 0.5381,0.4042 0.1794,-0.0049 0.3587,0.3495 0.5381,0.3442 0.1794,-0.0052 0.3587,0.2973 0.5381,0.2919 0.1794,-0.0055 0.3587,0.2514 0.5381,0.2456 0.1794,-0.0057 0.3587,0.2108 0.5381,0.2049 0.1794,-0.006 0.3587,0.1745 0.5381,0.1683 0.1794,-0.0062 0.3587,0.1421 0.5381,0.1356 0.1794,-0.0065 0.3587,0.1128 0.5381,0.1061 0.1794,-0.0067 0.3587,0.0863 0.5381,0.0793 0.1794,-0.007 0.3587,0.0622 0.5381,0.0549 0.1794,-0.0072 0.3587,0.0402 0.5381,0.0327 0.1794,-0.0075 0.3587,0.0199 0.5381,0.0122 0.1794,-0.0078 0.3587,0.0013 0.5381,-0.0067 0.1794,-0.008 0.3587,-0.0158 0.5381,-0.024 0.1794,-0.0083 0.3587,-0.0317 0.5381,-0.0402 0.1794,-0.0085 0.3587,-0.0464 0.5381,-0.0552 0.1794,-0.0087 0.3587,-0.06 0.5381,-0.069 0.1793,-0.0091 0.3587,-0.0729 0.5381,-0.0821 0.1793,-0.0093 0.3587,-0.0847 0.5381,-0.0942 0.1793,-0.0095 0.3587,-0.0958 0.5381,-0.1056 0.1793,-0.0097 0.3587,-0.1062 0.5381,-0.1162 0.1793,-0.01 0.3587,-0.1159 0.5381,-0.1262 0.1793,-0.0102 0.3587,-0.125 0.5381,-0.1355 0.1793,-0.0105 0.3587,-0.1336 0.5381,-0.1444 0.1793,-0.0107 0.3587,-0.1416 0.5381,-0.1526 0.1793,-0.011 0.3587,-0.1491 0.5381,-0.1604 0.1793,-0.0113 0.3587,-0.1562 0.5381,-0.1678 0.1793,-0.0115 0.3587,-0.1628 0.5381,-0.1746 0.1793,-0.0118 0.3587,-0.169 0.5381,-0.1811 0.1793,-0.012 0.3587,-0.1749 0.5381,-0.1872 0.1793,-0.0123 0.3587,-0.1804 0.5381,-0.1929 0.1793,-0.0126 0.3587,-0.1855 0.5381,-0.1983 0.1793,-0.0128 0.3587,-0.1903 0.5381,-0.2033 0.1793,-0.0131 0.3587,-0.1948 0.5381,-0.2081 0.1793,-0.0133 0.3587,-0.1989 0.5381,-0.2125 0.1793,-0.0135 0.3587,-0.2027 0.5381,-0.2166 0.1793,-0.0138 0.3587,-0.2063 0.5381,-0.2204 0.1793,-0.0141 0.3587,-0.2096 0.5381,-0.224 0.1793,-0.0143 0.3587,-0.2127 0.5381,-0.2273 0.1793,-0.0145 0.3587,-0.2155 0.5381,-0.2303 0.1793,-0.0148 0.3587,-0.218 0.5381,-0.2331 0.1793,-0.0151 0.3587,-0.2204 0.5381,-0.2357 0.1793,-0.0154 0.3587,-0.2224 0.5381,-0.238 0.1793,-0.0156 0.3587,-0.2243 0.5381,-0.2401 0.1793,-0.0159 0.3587,-0.2259 0.5381,-0.242 0.1793,-0.0161 0.3587,-0.2273 0.5381,-0.2436 0.1793,-0.0164 0.3587,-0.2285 0.5381,-0.2451 0.1793,-0.0166 0.3587,-0.2294 0.5381,-0.2463 0.1793,-0.0168 0.3587,-0.2302 0.5381,-0.2473 0.1793,-0.0171 0.3587,-0.2307 0.5381,-0.2481 0.1793,-0.0174 0.3587,-0.2311 0.5381,-0.2488 0.1793,-0.0176 0.3587,-0.2313 0.5381,-0.2491 0.1793,-0.0179 0.3587,-0.2313 0.5381,-0.2495 0.1793,-0.0181 0.3587,-0.2311 0.5381,-0.2494 0.1793,-0.0184 0.3587,-0.2307 0.5381,-0.2494 0.1793,-0.0186 0.3587,-0.2301 0.5381,-0.249 0.1793,-0.0188 0.3587,-0.2293 0.5381,-0.2485 0.1793,-0.0191 0.3587,-0.2284 0.5381,-0.2478 0.1793,-0.0194 0.3587,-0.2273 0.5381,-0.2469 0.1793,-0.0197 0.3587,-0.226 0.5381,-0.2459 0.1793,-0.0199 0.3587,-0.2246 0.5381,-0.2447 0.1793,-0.0202 0.3587,-0.2229 0.5381,-0.2433 0.1793,-0.0204 0.3587,-0.2211 0.5381,-0.2418 0.1793,-0.0206 0.3587,-0.2191 0.5381,-0.24 0.1793,-0.0209 0.3587,-0.2169 0.5381,-0.2381 0.1793,-0.0212 0.3587,-0.2146 0.5381,-0.2361 0.1793,-0.0214 0.3587,-0.2121 0.5381,-0.2338 0.1793,-0.0217 0.3587,-0.2095 0.5381,-0.2314 0.1793,-0.0219 0.3587,-0.2067 0.5381,-0.2289 0.1793,-0.0222 0.3587,-0.2037 0.5381,-0.2261 0.1793,-0.0225 0.3587,-0.2006 0.5381,-0.2233 0.1793,-0.0227 0.3587,-0.1973 0.5381,-0.2202 0.1793,-0.023 0.3587,-0.1938 0.5381,-0.217 0.1793,-0.0232 0.3587,-0.1902 0.5381,-0.2137 0.1793,-0.0234 0.3587,-0.1864 0.5381,-0.2101 0.1793,-0.0237 0.3587,-0.1825 0.5381,-0.2064 0.1793,-0.024 0.3587,-0.1784 0.5381,-0.2026 0.1793,-0.0242 0.3587,-0.1742 0.5381,-0.1986 0.1793,-0.0245 0.3587,-0.1698 0.5381,-0.1945 0.1793,-0.0247 0.3587,-0.1652 0.5381,-0.1901 0.1793,-0.025 0.3587,-0.1605 0.5381,-0.1857 0.1793,-0.0252 0.3587,-0.1556 0.5381,-0.1811 0.1793,-0.0254 0.3587,-0.1505 0.5381,-0.1763 0.1793,-0.0257 0.3587,-0.1454 0.5381,-0.1713 0.1793,-0.026 0.3587,-0.1401 0.5381,-0.1663 0.1793,-0.0262 0.3587,-0.1346 0.5381,-0.1611 0.1793,-0.0264 0.3587,-0.1289 0.5381,-0.1556 0.1793,-0.0268 0.3587,-0.1232 0.5381,-0.1502 0.1793,-0.027 0.3587,-0.1172 0.5381,-0.1444 0.1793,-0.0273 0.3587,-0.1111 0.5381,-0.1386 0.1793,-0.0275 0.3587,-0.1049 0.5381,-0.1327 0.1793,-0.0277 0.3587,-0.0984 0.5381,-0.1264 0.1793,-0.028 0.3587,-0.092 0.5381,-0.1202 0.1793,-0.0283 0.3587,-0.0853 0.5381,-0.1138 0.1793,-0.0285 0.3587,-0.0784 0.5381,-0.1072 0.1793,-0.0287 0.3587,-0.0714 0.5381,-0.1004 0.1793,-0.029 0.3587,-0.0643 0.5381,-0.0935 0.1793,-0.0293 0.3587,-0.057 0.5381,-0.0865 0.1793,-0.0295 0.3587,-0.0496 0.5381,-0.0793 0.1793,-0.0298 0.3587,-0.042 0.538,-0.072 0.1794,-0.0301 0.3588,-0.0343 0.5381,-0.0645 0.1794,-0.0303 0.3588,-0.0264 0.5381,-0.0569 0.1794,-0.0305 0.3588,-0.0183 0.5381,-0.0491 0.1794,-0.0308 0.3588,-0.0101 0.5381,-0.0412 0.1794,-0.031 0.3588,-0.0018 0.5381,-0.0331 0.1794,-0.0313 0.3588,0.0067 0.5381,-0.0249 0.1794,-0.0315 0.3588,0.0153 0.5381,-0.0165 0.1794,-0.0318 0.3588,0.0241 0.5381,-0.008 0.1794,-0.032 0.3588,0.033 0.5381,7e-4 0.1794,-0.0323 0.3588,0.042 0.5381,0.0095 0.1794,-0.0326 0.3588,0.0512 0.5381,0.0184 0.1794,-0.0328 0.3588,0.0606 0.5381,0.0275 0.1794,-0.0331 0.3588,0.0701 0.5381,0.0368 0.1794,-0.0333 0.3588,0.0797 0.5381,0.0461 0.1794,-0.0335 0.3588,0.0895 0.5381,0.0557 0.1794,-0.0338 0.3588,0.0995 0.5381,0.0654 0.1794,-0.0341 0.3588,0.1095 0.5381,0.0752 0.1794,-0.0343 0.3588,0.1198 0.5381,0.0852 0.1794,-0.0346 0.3588,0.1301 0.5381,0.0953 0.1794,-0.0348 0.3588,0.1407 0.5381,0.1056 0.1794,-0.0351 0.3588,0.1513 0.5381,0.116 0.1794,-0.0354 0.3588,0.1621 0.5381,0.1265 0.1794,-0.0356 0.3588,0.1731 0.5381,0.1373 0.1794,-0.0359 0.3588,0.1841 0.5381,0.148 0.1794,-0.0361 0.3588,0.1955 0.5381,0.1591 0.1794,-0.0363 0.3588,0.2069 0.5381,0.1702 0.1794,-0.0366 0.3588,0.2184 0.5381,0.1815 0.1794,-0.0368 0.3588,0.2301 0.5381,0.193 0.1794,-0.0371 0.3588,0.2418 0.5381,0.2045 0.1794,-0.0374 0.3588,0.2538 0.5381,0.2162 0.1794,-0.0376 0.3588,0.2659 0.5381,0.2281 0.1794,-0.0379 0.3588,0.2782 0.5381,0.24 0.1794,-0.0381 0.3588,0.2906 0.5381,0.2523 0.1794,-0.0384 0.3588,0.3031 0.5381,0.2645 0.1794,-0.0387 0.3588,0.3158 0.5381,0.2769 0.1794,-0.0389 0.3588,0.3287 0.5381,0.2896 0.1794,-0.0392 0.3588,0.3416 0.5381,0.3022 0.1794,-0.0394 0.3588,0.3548 0.5381,0.3152 0.1794,-0.0397 0.3588,0.368 0.5381,0.3281 0.1794,-0.0399 0.3588,0.3815 0.5381,0.3413 0.1794,-0.0401 0.3588,0.395 0.5381,0.3546 0.1794,-0.0404 0.3588,0.4087 0.5381,0.3681 0.1794,-0.0407 0.3588,0.4225 0.5381,0.3816 0.1794,-0.0409 0.3588,0.4365 0.5381,0.3954 0.1794,-0.0412 0.3588,0.4507 0.5381,0.4092 0.1794,-0.0414 0.3588,0.465 0.5381,0.4233 0.1794,-0.0417 0.3588,0.4794 0.5381,0.4374 0.1794,-0.0419 0.3588,0.494 0.5381,0.4518 0.1794,-0.0422 0.3588,0.5086 0.5381,0.4662 0.1794,-0.0425 0.3588,0.5234 0.5381,0.4808 0.1794,-0.0427 0.3588,0.5384 0.5381,0.4955 0.1794,-0.0429 0.3588,0.5536 0.5381,0.5104 0.1794,-0.0432 0.3588,0.5689 0.5381,0.5254 0.1794,-0.0434 0.3588,0.5843 0.5381,0.5406 0.1794,-0.0437 0.3588,0.5999 0.5381,0.556 0.1794,-0.044 0.3588,0.6155 0.5381,0.5713 0.1794,-0.0442 0.3588,0.6314 0.5381,0.587 0.1794,-0.0445 0.3588,0.6474 0.5381,0.6027 0.1794,-0.0447 0.3588,0.6636 0.5381,0.6186 0.1794,-0.045 0.3588,0.6798 0.5381,0.6346 0.1794,-0.0452 0.3588,0.6963 0.5386,0.6508 0.179,-0.0454 0.358,0.7129 0.538,0.6671 0.179,-0.0457 0.358,0.7296 0.538,0.6836 0.179,-0.046 0.358,0.7464 0.538,0.7002 0.179,-0.0463 0.359,0.7634 0.538,0.7169 0.179,-0.0465 0.359,0.7805 0.538,0.7338 0.179,-0.0467 0.359,0.7978 0.538,0.7508 0.179,-0.047 0.359,0.8153 0.538,0.768 0.18,-0.0472 0.359,0.8328 0.538,0.7854 0.18,-0.0475 0.359,0.8505 0.538,0.8027 0.18,-0.0477 0.359,0.8684 0.539,0.8204 0.179,-0.048 0.358,0.8864 0.538,0.8381 0.179,-0.0482 0.358,0.9046 0.538,0.8561 0.179,-0.0485 0.358,0.9228 0.538,0.874"
       title="1/x - 2*x**3 + 6*x**2"
       clip-path="url(#clipPath1381)"
       id="path1856" />
  </g>
  <g
     style="display:inline"
     inkscape:label="Layer 2"
     id="layer2"
     inkscape:groupmode="layer">
    <path
       style="fill:none;stroke:#000000;stroke-width:0.4;stroke-linecap:butt;stroke-linejoin:miter;stroke-miterlimit:4;stroke-dasharray:none;stroke-opacity:1"
       d="m 17.975155,55.840564 v 3.228701"
       id="path861" />
    <path
       id="path861-4"
       d="m 65.479089,55.852947 v 3.228701"
       style="fill:none;stroke:#000000;stroke-width:0.4;stroke-linecap:butt;stroke-linejoin:miter;stroke-miterlimit:4;stroke-dasharray:none;stroke-opacity:1" />
    <g
       id="g898"
       transform="matrix(0.93010381,0,0,0.93010381,-22.514675,-22.982062)"
       inkscape:label="">
      <g
         id="g168">
        <g
           style="fill:#000000;fill-opacity:1"
           id="g3729">
          <use
             xlink:href="#symbol4470"
             x="91.925003"
             y="81.962997"
             id="use3150"
             width="100%"
             height="100%" />
        </g>
      </g>
    </g>
    <g
       id="g942"
       transform="matrix(0.99653979,0,0,0.99653979,-72.325386,-28.528123)"
       inkscape:label="">
      <g
         inkscape:label=""
         transform="matrix(0.65831435,0,0,0.65831435,28.627303,27.99483)"
         id="g2036">
        <g
           id="g2776">
          <g
             id="g7544"
             style="fill:#000000;fill-opacity:1">
            <use
               height="100%"
               width="100%"
               id="use9734"
               y="81.962997"
               x="91.925003"
               xlink:href="#symbol1973" />
          </g>
        </g>
      </g>
    </g>
    <g
       id="g1001"
       transform="translate(2.510868,-28.708057)"
       inkscape:label="">
      <g
         id="g5082">
        <g
           style="fill:#000000;fill-opacity:1"
           id="g9721">
          <use
             xlink:href="#symbol5331"
             x="91.925003"
             y="81.962997"
             id="use2554"
             width="100%"
             height="100%" />
        </g>
      </g>
    </g>
    <g
       id="g1077"
       transform="matrix(0.80125197,0,0,0.80125197,-64.82407,-55.436994)"
       inkscape:label="">
      <g
         id="g693">
        <g
           style="fill:#000000;fill-opacity:1"
           id="g653">
          <use
             xlink:href="#symbol9623"
             x="91.925003"
             y="81.962997"
             id="use7454"
             width="100%"
             height="100%" />
        </g>
        <g
           style="fill:#000000;fill-opacity:1"
           id="g9377">
          <use
             xlink:href="#symbol3109"
             x="99.814003"
             y="81.962997"
             id="use4118"
             width="100%"
             height="100%" />
        </g>
        <g
           style="fill:#000000;fill-opacity:1"
           id="g1156">
          <use
             xlink:href="#symbol9519"
             x="103.688"
             y="81.962997"
             id="use8532"
             width="100%"
             height="100%" />
        </g>
        <g
           style="fill:#000000;fill-opacity:1"
           id="g1479">
          <use
             xlink:href="#symbol6844"
             x="109.382"
             y="81.962997"
             id="use8244"
             width="100%"
             height="100%" />
        </g>
      </g>
    </g>
    <path
       style="fill:none;stroke:#000000;stroke-width:0.8;stroke-linecap:butt;stroke-linejoin:miter;stroke-miterlimit:4;stroke-dasharray:none;stroke-opacity:1;marker-end:url(#Arrow1Mend)"
       d="M 2.1166667,65.689839 V 1.5765451"
       id="path1408" />
    <path
       id="path1408-3"
       d="M 0,57.478913 H 104.27274"
       style="fill:none;stroke:#000000;stroke-width:0.8;stroke-linecap:butt;stroke-linejoin:miter;stroke-miterlimit:4;stroke-dasharray:none;stroke-opacity:1;marker-end:url(#Arrow1Mend-9)" />
    <path
       style="fill:none;stroke:#e14b4b;stroke-width:0.5;stroke-linecap:butt;stroke-linejoin:miter;stroke-miterlimit:4;stroke-dasharray:none;stroke-opacity:1;marker-start:url(#Arrow1Mstart);marker-end:url(#marker1619)"
       d="m 44.477826,35.695447 c 0,0 17.073733,-19.194425 41.90583,0.916505"
       id="path1615"
       sodipodi:nodetypes="cc" />
  </g>
</svg>
